<mxfile host="Electron" agent="Mozilla/5.0 (Macintosh; Intel Mac OS X 10_15_7) AppleWebKit/537.36 (KHTML, like Gecko) draw.io/26.2.2 Chrome/134.0.6998.178 Electron/35.1.2 Safari/537.36" version="26.2.2">
  <diagram name="Page-1" id="bJp9AYPPNRsWqk5inCIt">
    <mxGraphModel dx="1222" dy="796" grid="1" gridSize="10" guides="1" tooltips="1" connect="1" arrows="1" fold="1" page="1" pageScale="1" pageWidth="1169" pageHeight="827" math="0" shadow="0">
      <root>
        <mxCell id="0" />
        <mxCell id="1" parent="0" />
        <mxCell id="GW-nSV20-8BJaq12YMSL-1" value="&lt;font style=&quot;font-size: 18px;&quot;&gt;(Комутатор + Маршрутизатор + Точка доступу)&lt;/font&gt;" style="image;html=1;image=img/lib/clip_art/networking/Wireless_Router_128x128.png" vertex="1" parent="1">
          <mxGeometry x="513" y="300" width="143.56" height="136" as="geometry" />
        </mxCell>
        <mxCell id="GW-nSV20-8BJaq12YMSL-2" value="" style="image;aspect=fixed;perimeter=ellipsePerimeter;html=1;align=center;shadow=0;dashed=0;spacingTop=3;image=img/lib/active_directory/internet_globe.svg;" vertex="1" parent="1">
          <mxGeometry x="890" y="270" width="210" height="210" as="geometry" />
        </mxCell>
        <mxCell id="GW-nSV20-8BJaq12YMSL-3" value="&lt;font style=&quot;font-size: 18px;&quot;&gt;Мережа (4G / 5G)&lt;/font&gt;" style="points=[[0.005,0.09,0],[0.08,0,0],[0.76,0.25,0],[1,0.92,0],[0.91,0.995,0],[0.57,0.995,0],[0.045,0.955,0],[0.005,0.43,0]];verticalLabelPosition=bottom;sketch=0;html=1;verticalAlign=top;aspect=fixed;align=center;pointerEvents=1;shape=mxgraph.cisco19.3g_4g_indicator;fillColor=#005073;strokeColor=none;" vertex="1" parent="1">
          <mxGeometry x="880" y="480" width="50" height="50" as="geometry" />
        </mxCell>
        <mxCell id="GW-nSV20-8BJaq12YMSL-4" value="" style="image;html=1;image=img/lib/clip_art/computers/Netbook_128x128.png" vertex="1" parent="1">
          <mxGeometry x="150" y="328" width="80" height="80" as="geometry" />
        </mxCell>
        <mxCell id="GW-nSV20-8BJaq12YMSL-5" value="" style="points=[[0.02,0.015,0],[0.5,0,0],[0.98,0.015,0],[1,0.38,0],[0.895,0.98,0],[0.5,1,0],[0.105,0.98,0],[0,0.38,0]];verticalLabelPosition=bottom;sketch=0;html=1;verticalAlign=top;aspect=fixed;align=center;pointerEvents=1;shape=mxgraph.cisco19.secure_endpoint_pc;fillColor=#005073;strokeColor=none;" vertex="1" parent="1">
          <mxGeometry x="560" y="390" width="50" height="40" as="geometry" />
        </mxCell>
        <mxCell id="GW-nSV20-8BJaq12YMSL-6" value="" style="fontColor=#0066CC;verticalAlign=top;verticalLabelPosition=bottom;labelPosition=center;align=center;html=1;outlineConnect=0;fillColor=#CCCCCC;strokeColor=#6881B3;gradientColor=none;gradientDirection=north;strokeWidth=2;shape=mxgraph.networks.pc;" vertex="1" parent="1">
          <mxGeometry x="150" y="436" width="80" height="54" as="geometry" />
        </mxCell>
        <mxCell id="GW-nSV20-8BJaq12YMSL-7" value="" style="sketch=0;pointerEvents=1;shadow=0;dashed=0;html=1;strokeColor=none;fillColor=#505050;labelPosition=center;verticalLabelPosition=bottom;verticalAlign=top;outlineConnect=0;align=center;shape=mxgraph.office.devices.tv;" vertex="1" parent="1">
          <mxGeometry x="150" y="225" width="80" height="75" as="geometry" />
        </mxCell>
        <mxCell id="GW-nSV20-8BJaq12YMSL-8" value="" style="image;points=[];aspect=fixed;html=1;align=center;shadow=0;dashed=0;image=img/lib/allied_telesis/computer_and_terminals/Smartphone.svg;" vertex="1" parent="1">
          <mxGeometry x="770" y="540" width="32.08" height="70" as="geometry" />
        </mxCell>
        <mxCell id="GW-nSV20-8BJaq12YMSL-9" value="" style="shape=flexArrow;endArrow=classic;startArrow=classic;html=1;rounded=0;entryX=0;entryY=0.571;entryDx=0;entryDy=0;entryPerimeter=0;" edge="1" parent="1" target="GW-nSV20-8BJaq12YMSL-2">
          <mxGeometry width="100" height="100" relative="1" as="geometry">
            <mxPoint x="710" y="390" as="sourcePoint" />
            <mxPoint x="820" y="390" as="targetPoint" />
            <Array as="points" />
          </mxGeometry>
        </mxCell>
        <mxCell id="GW-nSV20-8BJaq12YMSL-22" value="&lt;font style=&quot;font-size: 15px;&quot;&gt;Оптичний&lt;br&gt;Кабель&lt;/font&gt;" style="edgeLabel;html=1;align=center;verticalAlign=middle;resizable=0;points=[];" vertex="1" connectable="0" parent="GW-nSV20-8BJaq12YMSL-9">
          <mxGeometry x="-0.2556" y="-2" relative="1" as="geometry">
            <mxPoint x="25" y="-4" as="offset" />
          </mxGeometry>
        </mxCell>
        <mxCell id="GW-nSV20-8BJaq12YMSL-11" value="" style="shape=flexArrow;endArrow=classic;startArrow=classic;html=1;rounded=0;entryX=0.25;entryY=1;entryDx=0;entryDy=0;" edge="1" parent="1" target="GW-nSV20-8BJaq12YMSL-2">
          <mxGeometry width="100" height="100" relative="1" as="geometry">
            <mxPoint x="810" y="580" as="sourcePoint" />
            <mxPoint x="940" y="580" as="targetPoint" />
          </mxGeometry>
        </mxCell>
        <mxCell id="GW-nSV20-8BJaq12YMSL-12" value="" style="shape=flexArrow;endArrow=classic;startArrow=classic;html=1;rounded=0;entryX=0;entryY=0.25;entryDx=0;entryDy=0;" edge="1" parent="1" target="GW-nSV20-8BJaq12YMSL-1">
          <mxGeometry width="100" height="100" relative="1" as="geometry">
            <mxPoint x="240" y="270" as="sourcePoint" />
            <mxPoint x="340" y="170" as="targetPoint" />
          </mxGeometry>
        </mxCell>
        <mxCell id="GW-nSV20-8BJaq12YMSL-19" value="&lt;font style=&quot;font-size: 14px;&quot;&gt;UTP Кабель&lt;/font&gt;" style="edgeLabel;html=1;align=center;verticalAlign=middle;resizable=0;points=[];" vertex="1" connectable="0" parent="GW-nSV20-8BJaq12YMSL-12">
          <mxGeometry x="-0.0517" y="2" relative="1" as="geometry">
            <mxPoint as="offset" />
          </mxGeometry>
        </mxCell>
        <mxCell id="GW-nSV20-8BJaq12YMSL-13" value="" style="shape=flexArrow;endArrow=classic;startArrow=classic;html=1;rounded=0;" edge="1" parent="1" source="GW-nSV20-8BJaq12YMSL-4" target="GW-nSV20-8BJaq12YMSL-1">
          <mxGeometry width="100" height="100" relative="1" as="geometry">
            <mxPoint x="250" y="280" as="sourcePoint" />
            <mxPoint x="523" y="358" as="targetPoint" />
          </mxGeometry>
        </mxCell>
        <mxCell id="GW-nSV20-8BJaq12YMSL-14" value="" style="shape=flexArrow;endArrow=classic;startArrow=classic;html=1;rounded=0;" edge="1" parent="1" source="GW-nSV20-8BJaq12YMSL-6">
          <mxGeometry width="100" height="100" relative="1" as="geometry">
            <mxPoint x="260" y="290" as="sourcePoint" />
            <mxPoint x="510" y="400" as="targetPoint" />
          </mxGeometry>
        </mxCell>
        <mxCell id="GW-nSV20-8BJaq12YMSL-20" value="UTP Кабель" style="edgeLabel;html=1;align=center;verticalAlign=middle;resizable=0;points=[];" vertex="1" connectable="0" parent="GW-nSV20-8BJaq12YMSL-14">
          <mxGeometry x="-0.2397" y="-3" relative="1" as="geometry">
            <mxPoint as="offset" />
          </mxGeometry>
        </mxCell>
        <mxCell id="GW-nSV20-8BJaq12YMSL-16" value="&lt;font style=&quot;font-size: 14px;&quot;&gt;WiFi&lt;/font&gt;" style="html=1;strokeWidth=1;shadow=0;dashed=0;shape=mxgraph.ios7.misc.wifi;fillColor=#007AFF;strokeColor=none;buttonText=;strokeColor2=#222222;fontColor=#222222;fontSize=8;verticalLabelPosition=bottom;verticalAlign=top;align=center;sketch=0;" vertex="1" parent="1">
          <mxGeometry x="340" y="328" width="60" height="60" as="geometry" />
        </mxCell>
        <mxCell id="GW-nSV20-8BJaq12YMSL-21" value="&lt;font style=&quot;font-size: 17px;&quot;&gt;Модем&lt;/font&gt;" style="image;aspect=fixed;perimeter=ellipsePerimeter;html=1;align=center;shadow=0;dashed=0;spacingTop=3;image=img/lib/active_directory/modem.svg;" vertex="1" parent="1">
          <mxGeometry x="656.56" y="372" width="50" height="41.5" as="geometry" />
        </mxCell>
      </root>
    </mxGraphModel>
  </diagram>
</mxfile>
